<mxfile host="app.diagrams.net" modified="2020-09-12T21:58:49.376Z" agent="5.0 (Windows NT 10.0; Win64; x64) AppleWebKit/537.36 (KHTML, like Gecko) Chrome/85.0.4183.102 Safari/537.36" etag="W8lL6P8u_W04hdXGe9r6" version="13.6.9" type="github">
  <diagram id="snA5wIH1FXUt3bnCRdw-" name="Page-1">
    <mxGraphModel dx="1102" dy="582" grid="1" gridSize="10" guides="1" tooltips="1" connect="1" arrows="1" fold="1" page="1" pageScale="1" pageWidth="827" pageHeight="1169" math="0" shadow="0">
      <root>
        <mxCell id="0" />
        <mxCell id="1" parent="0" />
        <mxCell id="H8tqieu_wZ1byqVmmLSu-40" style="edgeStyle=orthogonalEdgeStyle;rounded=0;orthogonalLoop=1;jettySize=auto;html=1;entryX=0;entryY=0.5;entryDx=0;entryDy=0;" parent="1" source="H8tqieu_wZ1byqVmmLSu-1" target="H8tqieu_wZ1byqVmmLSu-20" edge="1">
          <mxGeometry relative="1" as="geometry">
            <Array as="points">
              <mxPoint x="440" y="260" />
              <mxPoint x="820" y="260" />
              <mxPoint x="820" y="300" />
            </Array>
          </mxGeometry>
        </mxCell>
        <mxCell id="H8tqieu_wZ1byqVmmLSu-1" value="Airplane Controller&lt;br&gt;Global Controller" style="rounded=0;whiteSpace=wrap;html=1;fillColor=#d5e8d4;strokeColor=#82b366;" parent="1" vertex="1">
          <mxGeometry x="350" y="270" width="120" height="60" as="geometry" />
        </mxCell>
        <mxCell id="H8tqieu_wZ1byqVmmLSu-15" style="edgeStyle=orthogonalEdgeStyle;rounded=0;orthogonalLoop=1;jettySize=auto;html=1;entryX=0.25;entryY=1;entryDx=0;entryDy=0;" parent="1" source="H8tqieu_wZ1byqVmmLSu-2" target="H8tqieu_wZ1byqVmmLSu-1" edge="1">
          <mxGeometry relative="1" as="geometry">
            <Array as="points">
              <mxPoint x="200" y="370" />
              <mxPoint x="380" y="370" />
            </Array>
          </mxGeometry>
        </mxCell>
        <mxCell id="H8tqieu_wZ1byqVmmLSu-2" value="Airplane&amp;nbsp;Aerodynamics&lt;br&gt;Lift and Drag" style="rounded=0;whiteSpace=wrap;html=1;" parent="1" vertex="1">
          <mxGeometry x="130" y="390" width="140" height="60" as="geometry" />
        </mxCell>
        <mxCell id="H8tqieu_wZ1byqVmmLSu-5" style="edgeStyle=orthogonalEdgeStyle;rounded=0;orthogonalLoop=1;jettySize=auto;html=1;" parent="1" source="H8tqieu_wZ1byqVmmLSu-3" target="H8tqieu_wZ1byqVmmLSu-1" edge="1">
          <mxGeometry relative="1" as="geometry" />
        </mxCell>
        <mxCell id="H8tqieu_wZ1byqVmmLSu-3" value="Airplane Input" style="rounded=0;whiteSpace=wrap;html=1;fillColor=#d5e8d4;strokeColor=#82b366;" parent="1" vertex="1">
          <mxGeometry x="350" y="140" width="120" height="60" as="geometry" />
        </mxCell>
        <mxCell id="H8tqieu_wZ1byqVmmLSu-13" style="edgeStyle=orthogonalEdgeStyle;rounded=0;orthogonalLoop=1;jettySize=auto;html=1;entryX=0.5;entryY=1;entryDx=0;entryDy=0;" parent="1" source="H8tqieu_wZ1byqVmmLSu-7" target="H8tqieu_wZ1byqVmmLSu-1" edge="1">
          <mxGeometry relative="1" as="geometry" />
        </mxCell>
        <mxCell id="H8tqieu_wZ1byqVmmLSu-7" value="Airplane Engine&lt;br&gt;RPM&lt;br&gt;Horsepower" style="rounded=0;whiteSpace=wrap;html=1;" parent="1" vertex="1">
          <mxGeometry x="340" y="390" width="140" height="60" as="geometry" />
        </mxCell>
        <mxCell id="H8tqieu_wZ1byqVmmLSu-14" style="edgeStyle=orthogonalEdgeStyle;rounded=0;orthogonalLoop=1;jettySize=auto;html=1;entryX=0.75;entryY=1;entryDx=0;entryDy=0;" parent="1" source="H8tqieu_wZ1byqVmmLSu-10" target="H8tqieu_wZ1byqVmmLSu-1" edge="1">
          <mxGeometry relative="1" as="geometry">
            <Array as="points">
              <mxPoint x="620" y="370" />
              <mxPoint x="440" y="370" />
            </Array>
          </mxGeometry>
        </mxCell>
        <mxCell id="H8tqieu_wZ1byqVmmLSu-10" value="Airplane Propeller&lt;br&gt;Spinning" style="rounded=0;whiteSpace=wrap;html=1;" parent="1" vertex="1">
          <mxGeometry x="560" y="390" width="120" height="60" as="geometry" />
        </mxCell>
        <mxCell id="H8tqieu_wZ1byqVmmLSu-17" style="edgeStyle=orthogonalEdgeStyle;rounded=0;orthogonalLoop=1;jettySize=auto;html=1;entryX=1;entryY=0.5;entryDx=0;entryDy=0;" parent="1" source="H8tqieu_wZ1byqVmmLSu-16" target="H8tqieu_wZ1byqVmmLSu-1" edge="1">
          <mxGeometry relative="1" as="geometry" />
        </mxCell>
        <mxCell id="H8tqieu_wZ1byqVmmLSu-16" value="Airplane Control Surface" style="rounded=0;whiteSpace=wrap;html=1;" parent="1" vertex="1">
          <mxGeometry x="620" y="270" width="120" height="60" as="geometry" />
        </mxCell>
        <mxCell id="H8tqieu_wZ1byqVmmLSu-19" style="edgeStyle=orthogonalEdgeStyle;rounded=0;orthogonalLoop=1;jettySize=auto;html=1;entryX=0;entryY=0.5;entryDx=0;entryDy=0;" parent="1" source="H8tqieu_wZ1byqVmmLSu-18" target="H8tqieu_wZ1byqVmmLSu-1" edge="1">
          <mxGeometry relative="1" as="geometry" />
        </mxCell>
        <mxCell id="H8tqieu_wZ1byqVmmLSu-18" value="Airplane Wheels" style="rounded=0;whiteSpace=wrap;html=1;" parent="1" vertex="1">
          <mxGeometry x="80" y="270" width="120" height="60" as="geometry" />
        </mxCell>
        <mxCell id="H8tqieu_wZ1byqVmmLSu-20" value="Airplane UI" style="rounded=0;whiteSpace=wrap;html=1;" parent="1" vertex="1">
          <mxGeometry x="1050" y="270" width="120" height="60" as="geometry" />
        </mxCell>
        <mxCell id="H8tqieu_wZ1byqVmmLSu-32" style="edgeStyle=orthogonalEdgeStyle;rounded=0;orthogonalLoop=1;jettySize=auto;html=1;entryX=0.25;entryY=0;entryDx=0;entryDy=0;" parent="1" source="H8tqieu_wZ1byqVmmLSu-21" target="H8tqieu_wZ1byqVmmLSu-20" edge="1">
          <mxGeometry relative="1" as="geometry" />
        </mxCell>
        <mxCell id="H8tqieu_wZ1byqVmmLSu-21" value="Tachometer" style="rounded=0;whiteSpace=wrap;html=1;" parent="1" vertex="1">
          <mxGeometry x="870" y="210" width="120" height="60" as="geometry" />
        </mxCell>
        <mxCell id="H8tqieu_wZ1byqVmmLSu-30" style="edgeStyle=orthogonalEdgeStyle;rounded=0;orthogonalLoop=1;jettySize=auto;html=1;entryX=0.5;entryY=0;entryDx=0;entryDy=0;" parent="1" source="H8tqieu_wZ1byqVmmLSu-22" target="H8tqieu_wZ1byqVmmLSu-20" edge="1">
          <mxGeometry relative="1" as="geometry" />
        </mxCell>
        <mxCell id="H8tqieu_wZ1byqVmmLSu-22" value="Altimeter" style="rounded=0;whiteSpace=wrap;html=1;" parent="1" vertex="1">
          <mxGeometry x="1050" y="160" width="120" height="60" as="geometry" />
        </mxCell>
        <mxCell id="H8tqieu_wZ1byqVmmLSu-33" style="edgeStyle=orthogonalEdgeStyle;rounded=0;orthogonalLoop=1;jettySize=auto;html=1;entryX=0.75;entryY=0;entryDx=0;entryDy=0;" parent="1" source="H8tqieu_wZ1byqVmmLSu-23" target="H8tqieu_wZ1byqVmmLSu-20" edge="1">
          <mxGeometry relative="1" as="geometry" />
        </mxCell>
        <mxCell id="H8tqieu_wZ1byqVmmLSu-23" value="Full Indicator" style="rounded=0;whiteSpace=wrap;html=1;" parent="1" vertex="1">
          <mxGeometry x="1230" y="210" width="120" height="60" as="geometry" />
        </mxCell>
        <mxCell id="H8tqieu_wZ1byqVmmLSu-36" style="edgeStyle=orthogonalEdgeStyle;rounded=0;orthogonalLoop=1;jettySize=auto;html=1;entryX=0.25;entryY=1;entryDx=0;entryDy=0;" parent="1" source="H8tqieu_wZ1byqVmmLSu-25" target="H8tqieu_wZ1byqVmmLSu-20" edge="1">
          <mxGeometry relative="1" as="geometry" />
        </mxCell>
        <mxCell id="H8tqieu_wZ1byqVmmLSu-25" value="Throttle" style="rounded=0;whiteSpace=wrap;html=1;" parent="1" vertex="1">
          <mxGeometry x="880" y="330" width="120" height="60" as="geometry" />
        </mxCell>
        <mxCell id="H8tqieu_wZ1byqVmmLSu-35" style="edgeStyle=orthogonalEdgeStyle;rounded=0;orthogonalLoop=1;jettySize=auto;html=1;entryX=0.5;entryY=1;entryDx=0;entryDy=0;" parent="1" source="H8tqieu_wZ1byqVmmLSu-26" target="H8tqieu_wZ1byqVmmLSu-20" edge="1">
          <mxGeometry relative="1" as="geometry" />
        </mxCell>
        <mxCell id="H8tqieu_wZ1byqVmmLSu-26" value="Flaps" style="rounded=0;whiteSpace=wrap;html=1;" parent="1" vertex="1">
          <mxGeometry x="1050" y="380" width="120" height="60" as="geometry" />
        </mxCell>
        <mxCell id="H8tqieu_wZ1byqVmmLSu-34" style="edgeStyle=orthogonalEdgeStyle;rounded=0;orthogonalLoop=1;jettySize=auto;html=1;entryX=0.75;entryY=1;entryDx=0;entryDy=0;" parent="1" source="H8tqieu_wZ1byqVmmLSu-28" target="H8tqieu_wZ1byqVmmLSu-20" edge="1">
          <mxGeometry relative="1" as="geometry" />
        </mxCell>
        <mxCell id="H8tqieu_wZ1byqVmmLSu-28" value="Airspeed Indicator" style="rounded=0;whiteSpace=wrap;html=1;" parent="1" vertex="1">
          <mxGeometry x="1230" y="330" width="120" height="60" as="geometry" />
        </mxCell>
      </root>
    </mxGraphModel>
  </diagram>
</mxfile>
